<?xml version="1.0" encoding="UTF-8"?>
<svg xmlns="http://www.w3.org/2000/svg" id="Layer_1" data-name="Layer 1" viewBox="0 0 24 24" width="512" height="512"><path d="m15,2.5c0-1.381,1.119-2.5,2.5-2.5s2.5,1.119,2.5,2.5-1.119,2.5-2.5,2.5-2.5-1.119-2.5-2.5Zm4.319,10.5h4.681v-3h-3.319l-2.455-2.806c-.665-.759-1.625-1.194-2.634-1.194h-6.567l-2.396,5.391,2.741,1.219,1.604-3.609h1.529l-1.265,3.084c-.646,1.573-.07,3.375,1.428,4.322l4.333,2.466v5.128h3v-6.872l-4.439-2.525,1.668-3.992,2.09,2.389Zm-8.927,4.028l-.401.972h-5.991v-2h1.826c.111-1.253.174-2.595.174-4C6,5.373,4.657,0,3,0S0,5.373,0,12s1.343,12,3,12c.769,0,1.47-1.161,2-3.067v.067h7l.892-2.164-1.215-.692c-.499-.314-.918-.698-1.285-1.116Z"/></svg>
